<svg xmlns="http://www.w3.org/2000/svg" width="24" height="24" viewBox="0 0 24 24">
  <g id="Group_16985" data-name="Group 16985" transform="translate(-1152 -6640)">
    <rect id="Rectangle_13981" data-name="Rectangle 13981" width="24" height="24" transform="translate(1152 6640)" fill="#ebebeb" opacity="0"/>
    <g id="Group_16984" data-name="Group 16984" transform="translate(1154.233 6640)">
      <path id="Path_174" data-name="Path 174" d="M13.017,1.25a9.778,9.778,0,0,1,9.767,9.767c0,2.989-1.573,6.274-4.677,9.766a34.648,34.648,0,0,1-4.589,4.3.837.837,0,0,1-1,0,34.648,34.648,0,0,1-4.589-4.3c-3.1-3.491-4.677-6.777-4.677-9.766A9.778,9.778,0,0,1,13.017,1.25Zm0,22.094c1.839-1.505,8.093-7.013,8.093-12.326a8.093,8.093,0,1,0-16.186,0C4.924,16.33,11.178,21.839,13.017,23.344Z" transform="translate(-3.25 -1.25)"/>
      <path id="Ellipse_8" data-name="Ellipse 8" d="M3.436-.75A4.186,4.186,0,1,1-.75,3.436,4.191,4.191,0,0,1,3.436-.75Zm0,6.7A2.512,2.512,0,1,0,.924,3.436,2.514,2.514,0,0,0,3.436,5.948Z" transform="translate(6.331 6.331)"/>
    </g>
  </g>
</svg>
