<svg xmlns="http://www.w3.org/2000/svg" width="24" height="24" viewBox="0 0 24 24">
  <g id="Group_16988" data-name="Group 16988" transform="translate(-1152 -6639.385)">
    <rect id="Rectangle_13981" data-name="Rectangle 13981" width="24" height="24" transform="translate(1152 6639.385)" fill="#ebebeb" opacity="0"/>
    <g id="Group_16991" data-name="Group 16991" transform="translate(1152 6639.996)">
      <path id="Path_174" data-name="Path 174" d="M21.705,24.639c-.09,0-.181,0-.27-.012H21.42a22.528,22.528,0,0,1-9.774-3.476,22.248,22.248,0,0,1-6.795-6.795A22.527,22.527,0,0,1,1.375,4.535V4.522A3,3,0,0,1,4.361,1.25h3.3a3.015,3.015,0,0,1,2.972,2.582v.008a13.216,13.216,0,0,0,.719,2.888,3.009,3.009,0,0,1-.676,3.165l-.94.94a16.653,16.653,0,0,0,5.391,5.391l.937-.937a3,3,0,0,1,3.17-.679,13.211,13.211,0,0,0,2.886.719h.007a3,3,0,0,1,2.582,3.036v3.265a3,3,0,0,1-3,3.01ZM21.589,23c.039,0,.078,0,.117,0a1.364,1.364,0,0,0,1.364-1.37V18.354q0-.01,0-.02A1.364,1.364,0,0,0,21.9,16.949a14.855,14.855,0,0,1-3.241-.808,1.364,1.364,0,0,0-1.441.306L15.833,17.83a.819.819,0,0,1-.983.133,18.291,18.291,0,0,1-6.856-6.856.819.819,0,0,1,.133-.983L9.513,8.737a1.367,1.367,0,0,0,.3-1.436,14.86,14.86,0,0,1-.809-3.244,1.371,1.371,0,0,0-1.35-1.17h-3.3A1.364,1.364,0,0,0,3,4.369a20.881,20.881,0,0,0,3.223,9.1l0,.006a20.6,20.6,0,0,0,6.3,6.3l.006,0A20.883,20.883,0,0,0,21.589,23Z" transform="translate(-1.362 -1.25)"/>
      <path id="Path_175" data-name="Path 175" d="M22.85,11.554a.819.819,0,0,1-.812-.727,8.949,8.949,0,0,0-8-7.944A.819.819,0,0,1,14.2,1.255a10.642,10.642,0,0,1,9.46,9.389.819.819,0,0,1-.722.905A.828.828,0,0,1,22.85,11.554Z" transform="translate(-0.27 -1.25)"/>
      <path id="Path_176" data-name="Path 176" d="M18.429,11.253a.819.819,0,0,1-.8-.671A4.614,4.614,0,0,0,13.96,6.872a.819.819,0,1,1,.317-1.606,6.276,6.276,0,0,1,4.958,5.021.819.819,0,0,1-.806.967Z" transform="translate(-0.27 -0.884)"/>
    </g>
  </g>
</svg>
