<svg xmlns="http://www.w3.org/2000/svg" width="64" height="64" viewBox="0 0 64 64">
  <g id="Group_38" data-name="Group 38" transform="translate(-738 -2399)">
    <rect id="Rectangle_13934" data-name="Rectangle 13934" width="64" height="64" transform="translate(738 2399)" fill="#686868" opacity="0"/>
    <g id="svgexport-17" transform="translate(738 2398.766)">
      <circle id="Ellipse_6" data-name="Ellipse 6" cx="3.086" cy="3.086" r="3.086" transform="translate(37.931 33.656)" fill="#fff"/>
      <path id="Path_168" data-name="Path 168" d="M53.14,37.211V35.137H56.6A16.5,16.5,0,0,0,41.186,19.72v3.46H39.113V19.72A16.506,16.506,0,0,0,23.7,35.137h3.46v2.073H23.7A16.506,16.506,0,0,0,39.113,52.63V49.17h2.073v3.46A16.5,16.5,0,0,0,56.6,37.211Zm-4.115,6.88-5.462-4.074a5.2,5.2,0,1,1,1.244-1.659l5.456,4.072Z" transform="translate(0.868 0.567)" fill="#fff"/>
      <path id="Path_169" data-name="Path 169" d="M40.936,13.424a23.17,23.17,0,0,0-2.87.182H6.786A1.037,1.037,0,0,0,5.9,15.182l3.849,6.36a1.037,1.037,0,0,0,.887.5h7.849V19.968H11.218L8.626,15.68H30.992A23.07,23.07,0,0,0,19.775,27.43H2.214V29.5H19.007A23.013,23.013,0,0,0,30.992,57.129H13.148l-2.592-4.286h9.21V50.77H8.712a1.037,1.037,0,0,0-.886,1.573L11.677,58.7a1.037,1.037,0,0,0,.886.5h25.5a22.979,22.979,0,1,0,2.867-45.778Zm0,41.562A18.58,18.58,0,1,1,59.517,36.4,18.58,18.58,0,0,1,40.936,54.986Z" transform="translate(0.081 0.336)" fill="#fff"/>
      <path id="Path_170" data-name="Path 170" d="M0,35.7H11.921v2.073H0Zm2.3,7.94H14.586v2.073H2.3ZM37.94,11.884a24.353,24.353,0,0,1,6.166,0V9H48.72V4.234h-15.4V9H37.94Zm15.831,3.3q.895.532,1.737,1.134l1.046-1.514,1.751,1.21,2.144-3.11-5.209-3.6-2.145,3.11,1.752,1.213Z" fill="#fff"/>
    </g>
  </g>
</svg>
