<svg xmlns="http://www.w3.org/2000/svg" xmlns:xlink="http://www.w3.org/1999/xlink" width="64" height="64" viewBox="0 0 64 64">
  <defs>
    <clipPath id="clip-path">
      <rect id="Rectangle_13936" data-name="Rectangle 13936" width="64" height="64" transform="translate(1505 2388)" fill="#686868" opacity="0"/>
    </clipPath>
  </defs>
  <g id="Mask_Group_2" data-name="Mask Group 2" transform="translate(-1505 -2388)" clip-path="url(#clip-path)">
    <g id="svgexport-17_2_" data-name="svgexport-17 (2)" transform="translate(1505 2388)">
      <path id="Path_172" data-name="Path 172" d="M46.3,49.018a30.054,30.054,0,0,1,5.136,6.643.8.8,0,0,0,1.264.173,5.163,5.163,0,0,0,1-6.272,21.165,21.165,0,0,0-7.86-7.864,5.1,5.1,0,0,0-6.121.84,1.767,1.767,0,0,0-.209.267.8.8,0,0,0,.259,1.158A29.188,29.188,0,0,1,46.3,49.018Zm-1.508,1.509a26.755,26.755,0,0,0-7.414-5.413.8.8,0,0,0-.646-.021c-5.981,2.356-14.988-6.6-12.638-12.617a.8.8,0,0,0-.025-.651A30.543,30.543,0,0,0,11.937,19.247a.8.8,0,0,0-1.06.242C-2.266,39.034,30.031,71.428,49.65,58.352a.8.8,0,0,0,.259-1.036,27.744,27.744,0,0,0-5.118-6.789ZM25.212,29.438a.8.8,0,0,0,1.161.259,2.345,2.345,0,0,0,.277-.214,5.107,5.107,0,0,0,.847-6.129,21.152,21.152,0,0,0-7.863-7.86,5.154,5.154,0,0,0-6.239.971.8.8,0,0,0,.157,1.256A32.907,32.907,0,0,1,25.212,29.438ZM52,16H49.2a1.067,1.067,0,0,1-1.067-1.067v-2.8a1.068,1.068,0,0,0-1.067-1.067H46a1.068,1.068,0,0,0-1.067,1.067v2.8A1.067,1.067,0,0,1,43.863,16h-2.8A1.068,1.068,0,0,0,40,17.067v1.067A1.068,1.068,0,0,0,41.063,19.2h2.8a1.067,1.067,0,0,1,1.067,1.067v2.8A1.068,1.068,0,0,0,46,24.134h1.067a1.068,1.068,0,0,0,1.067-1.067v-2.8A1.067,1.067,0,0,1,49.2,19.2H52a1.068,1.068,0,0,0,1.067-1.067V17.067A1.068,1.068,0,0,0,52,16Z" fill="#fff"/>
      <path id="Path_173" data-name="Path 173" d="M46.4,0A16.466,16.466,0,0,0,30.1,16.263,16.3,16.3,0,0,0,35.851,28.9a10.732,10.732,0,0,1-.937,1.888,2.8,2.8,0,0,0,2.1,4.265c6.943.682,15.32-.794,20.532-5.519,3.573-3.239,5.384-7.651,5.384-13.115A16.385,16.385,0,0,0,46.4,0Zm8.8,18.134a3.2,3.2,0,0,1-3.2,3.2H50.263v1.733a3.2,3.2,0,0,1-3.2,3.2H46a3.2,3.2,0,0,1-3.2-3.2V21.334H41.063a3.2,3.2,0,0,1-3.2-3.2V17.067a3.2,3.2,0,0,1,3.2-3.2H42.8V12.134a3.2,3.2,0,0,1,3.2-3.2h1.067a3.2,3.2,0,0,1,3.2,3.2v1.733H52a3.2,3.2,0,0,1,3.2,3.2ZM25.8,59.715a.805.805,0,0,0-.873.065,10.857,10.857,0,0,1-10.92,1.1,6.444,6.444,0,0,0,2.075-4.248c.226-4.316-3.438-5.863-5.96-4.24-2.478,1.595-2.529,5.526.108,8.348a6.589,6.589,0,0,1-.816.232,5.511,5.511,0,0,1-6.335-3.188,1.067,1.067,0,1,0-1.893.983,7.617,7.617,0,0,0,8.679,4.291,8.828,8.828,0,0,0,2.223-.8,12.86,12.86,0,0,0,14.333-.942.8.8,0,0,0-.124-1.331q-.249-.131-.5-.265Zm-11.849-3.2a4.5,4.5,0,0,1-1.784,3.14,5.135,5.135,0,0,1-1.761-3.279c-.21-2.1,1.534-2.906,2.619-2.272a2.466,2.466,0,0,1,.927,2.411Z" fill="#fff"/>
    </g>
  </g>
</svg>
